# Blender 5.0.1
# www.blender.org
mtllib rogue_hooded_mask.mtl
o RogueHooded_Mask
v 0.114820 1.407402 -0.426954
v 0.221817 1.415146 -0.379667
v 0.313698 1.427467 -0.304444
v 0.384200 1.443522 -0.206410
v 0.428520 1.462220 -0.092248
v 0.443637 1.482285 0.030263
v 0.428520 1.502349 0.152774
v 0.384200 1.503704 0.267963
v 0.313698 1.467503 0.362969
v 0.221817 1.412387 0.421962
v 0.114820 1.365944 0.464576
v -0.000003 1.344875 0.473652
v -0.114825 1.365944 0.464576
v -0.221822 1.412387 0.421962
v -0.313703 1.467503 0.362969
v -0.384206 1.503704 0.267963
v -0.443642 1.482285 0.030263
v -0.428525 1.462220 -0.092248
v -0.384206 1.443522 -0.206410
v -0.313703 1.427466 -0.304443
v -0.221822 1.415146 -0.379667
v -0.114825 1.407402 -0.426954
v -0.000003 1.404760 -0.443083
v -0.320499 1.285253 0.242251
v -0.368437 1.403906 0.275654
v -0.263057 1.257504 0.310548
v 0.091452 1.256500 -0.311602
v 0.111301 1.360525 -0.396555
v -0.000003 1.358827 -0.412337
v -0.000003 1.255603 -0.323752
v -0.091457 1.256500 -0.311602
v -0.111306 1.360526 -0.396555
v -0.214865 1.365416 -0.350317
v -0.177294 1.259195 -0.275800
v 0.320493 1.285253 0.242251
v 0.368432 1.403906 0.275654
v 0.411567 1.414241 0.165025
v 0.355137 1.290796 0.148296
v -0.186712 1.222478 0.366285
v -0.303488 1.372945 -0.276887
v -0.252122 1.263669 -0.218275
v 0.426851 1.403982 0.047217
v 0.364901 1.285208 0.046519
v -0.118048 1.196980 0.390291
v -0.371083 1.382381 -0.181489
v -0.310985 1.269809 -0.142233
v 0.413102 1.392965 -0.070883
v 0.349630 1.277342 -0.052173
v -0.000003 1.173944 0.412701
v -0.413107 1.392965 -0.070883
v -0.349635 1.277342 -0.052173
v 0.371077 1.382381 -0.181489
v 0.310980 1.269809 -0.142233
v 0.118043 1.196979 0.390291
v -0.426856 1.403982 0.047217
v -0.364907 1.285208 0.046519
v 0.303482 1.372945 -0.276887
v 0.252116 1.263669 -0.218275
v 0.186706 1.222478 0.366285
v -0.411573 1.414241 0.165025
v -0.355142 1.290796 0.148296
v 0.214859 1.365415 -0.350317
v 0.177289 1.259195 -0.275800
v 0.263052 1.257504 0.310548
v 0.052651 1.207843 -0.175571
v 0.086019 1.235949 -0.295378
v 0.101775 1.207843 -0.154803
v 0.165911 1.236251 -0.260800
v 0.144042 1.207722 -0.121632
v 0.234022 1.236664 -0.206036
v 0.176547 1.207001 -0.077991
v 0.285630 1.237093 -0.135134
v 0.197019 1.205306 -0.026594
v 0.317307 1.237460 -0.053242
v 0.204009 1.202393 0.029231
v 0.327128 1.236368 0.034609
v 0.197019 1.198251 0.084943
v 0.314716 1.232522 0.123173
v 0.176547 1.192751 0.132273
v 0.281166 1.224473 0.200938
v 0.144042 1.182608 0.168337
v 0.228906 1.203297 0.256339
v 0.101775 1.170577 0.192862
v 0.161516 1.176208 0.292773
v 0.052651 1.161132 0.206801
v 0.083498 1.154464 0.313132
v -0.000003 1.157577 0.211287
v -0.000003 1.145275 0.318655
v -0.052657 1.161132 0.206801
v -0.083503 1.154464 0.313132
v -0.101780 1.170577 0.192862
v -0.161522 1.176208 0.292772
v -0.144047 1.182608 0.168337
v -0.228911 1.203297 0.256339
v -0.176552 1.192751 0.132273
v -0.281171 1.224473 0.200938
v -0.197025 1.198251 0.084943
v -0.314721 1.232522 0.123173
v -0.204015 1.202393 0.029231
v -0.327134 1.236368 0.034609
v -0.197025 1.205306 -0.026594
v -0.317313 1.237460 -0.053242
v -0.176552 1.207001 -0.077991
v -0.285636 1.237093 -0.135134
v -0.144047 1.207722 -0.121632
v -0.234028 1.236664 -0.206036
v -0.101780 1.207843 -0.154803
v -0.165916 1.236252 -0.260800
v -0.052657 1.207843 -0.175571
v -0.086024 1.235949 -0.295378
v -0.000003 1.235838 -0.307198
v -0.000003 1.207843 -0.182647
v -0.000003 1.197659 0.031503
v -0.101078 1.416379 -0.372009
v -0.195266 1.423196 -0.330382
v -0.276147 1.434041 -0.264165
v -0.338209 1.448175 -0.177868
v -0.377222 1.464634 -0.077374
v -0.390529 1.482296 0.030470
v -0.377222 1.498908 0.138365
v 0.377217 1.498907 0.138365
v 0.390524 1.482296 0.030470
v 0.377217 1.464634 -0.077374
v 0.338203 1.448175 -0.177868
v 0.276141 1.434041 -0.264165
v 0.195261 1.423196 -0.330383
v 0.101073 1.416379 -0.372009
v -0.000003 1.414053 -0.386207
v -0.297692 1.361632 0.353408
v -0.207253 1.306722 0.400159
v 0.207248 1.306722 0.400159
v 0.297687 1.361631 0.353408
v -0.133478 1.346901 0.485320
v -0.000003 1.315273 0.491879
v 0.133473 1.346901 0.485320
v 0.126963 1.256799 0.461553
v -0.000003 1.229759 0.471635
v -0.126969 1.256799 0.461553
v 0.384200 1.521047 0.266936
v 0.313698 1.537103 0.364969
v 0.221817 1.549423 0.446939
v 0.114820 1.559499 0.492615
v -0.000003 1.565361 0.514058
v -0.114825 1.559499 0.492615
v -0.221822 1.549423 0.446939
v -0.313703 1.537103 0.364969
v -0.384206 1.521047 0.266936
v -0.428525 1.502349 0.152774
v -0.338209 1.516418 0.238809
v -0.276147 1.530552 0.325105
v -0.195266 1.541397 0.396879
v -0.101078 1.548084 0.434773
v -0.000003 1.555804 0.459848
v 0.101073 1.548084 0.434773
v 0.195261 1.541397 0.396879
v 0.276141 1.530552 0.325105
v 0.338203 1.516418 0.238809
v -0.207253 1.439173 0.434747
v 0.207248 1.439173 0.434747
v -0.133478 1.533494 0.511004
v -0.000003 1.537356 0.531486
v 0.133473 1.533494 0.511004
v 0.126963 1.433536 0.504193
v -0.000003 1.435898 0.526115
v -0.126969 1.433536 0.504193
vn -0.8425 -0.5384 0.0172
vn -0.5701 -0.8154 0.1009
vn -0.8275 -0.5245 0.2004
vn 0.4015 -0.8327 -0.3813
vn 0.4200 -0.6189 -0.6638
vn 0.5898 -0.5993 -0.5413
vn -0.2169 -0.6374 -0.7394
vn -0.2838 -0.8372 -0.4675
vn -0.4200 -0.6189 -0.6638
vn 0.5736 -0.6522 0.4956
vn 0.4808 -0.8629 0.1555
vn 0.6719 -0.5773 0.4639
vn -0.5644 -0.1719 0.8074
vn -0.6521 -0.3384 0.6784
vn -0.4775 -0.2574 0.8401
vn -0.4691 -0.5531 -0.6884
vn -0.6839 -0.4302 -0.5892
vn -0.4819 -0.4966 -0.7219
vn 0.9571 -0.1443 0.2511
vn 0.9445 -0.3260 0.0400
vn 0.9780 -0.2066 0.0271
vn -0.6617 -0.4969 -0.5614
vn -0.8402 -0.3527 -0.4120
vn 0.9088 -0.3761 -0.1806
vn 0.9399 -0.2754 -0.2019
vn -0.5736 -0.6522 0.4956
vn -0.3373 -0.8071 0.4846
vn -0.4033 -0.4774 0.7807
vn -0.8147 -0.4331 -0.3857
vn -0.9399 -0.2754 -0.2019
vn 0.8147 -0.4331 -0.3857
vn 0.8402 -0.3527 -0.4120
vn -0.9088 -0.3761 -0.1806
vn -0.9780 -0.2066 0.0271
vn 0.6617 -0.4969 -0.5614
vn 0.6839 -0.4302 -0.5892
vn 0.0787 0.6840 0.7252
vn 0.0363 0.7197 0.6933
vn 0.0771 0.6990 0.7110
vn -0.9445 -0.3259 0.0400
vn -0.9571 -0.1443 0.2511
vn 0.4691 -0.5531 -0.6884
vn 0.4819 -0.4966 -0.7219
vn 0.7746 -0.5340 0.3389
vn 0.6930 -0.3179 0.6471
vn -0.5465 -0.8230 0.1548
vn -0.6719 -0.5773 0.4639
vn -0.7746 -0.5340 0.3389
vn -0.0000 -0.6019 -0.7986
vn -0.2491 -0.5408 -0.8034
vn -0.0000 -0.5563 -0.8310
vn 0.5465 -0.8230 0.1548
vn 0.8275 -0.5245 0.2004
vn -0.2435 -0.5891 -0.7705
vn 0.2838 -0.8372 -0.4675
vn 0.2169 -0.6374 -0.7394
vn 0.3373 -0.8071 0.4846
vn 0.3723 -0.9170 0.1431
vn 0.4924 -0.8276 -0.2693
vn 0.7261 -0.5790 -0.3708
vn -0.8103 -0.5576 -0.1802
vn -0.5758 -0.8174 -0.0173
vn -0.0000 -0.8465 0.5325
vn 0.2162 -0.9667 0.1372
vn 0.5509 -0.8222 -0.1434
vn 0.8103 -0.5576 -0.1802
vn -0.7261 -0.5790 -0.3708
vn -0.5509 -0.8222 -0.1434
vn -0.2162 -0.9667 0.1372
vn 0.5758 -0.8174 -0.0173
vn 0.8425 -0.5384 0.0172
vn -0.5898 -0.5993 -0.5413
vn -0.4925 -0.8276 -0.2693
vn -0.3723 -0.9170 0.1431
vn 0.5701 -0.8153 0.1009
vn -0.4015 -0.8327 -0.3813
vn -0.4808 -0.8629 0.1555
vn 0.8822 -0.0378 0.4694
vn 0.9277 -0.2802 0.2466
vn 0.2491 -0.5408 -0.8034
vn -0.0000 -0.6445 -0.7646
vn -0.1467 -0.8403 -0.5218
vn 0.2435 -0.5891 -0.7705
vn -0.9277 -0.2802 0.2466
vn -0.8822 -0.0378 0.4694
vn 0.7154 -0.0993 0.6917
vn 0.8537 -0.2649 0.4484
vn -0.8537 -0.2649 0.4484
vn -0.6930 -0.3179 0.6471
vn -0.0000 -0.5345 0.8452
vn -0.0363 0.7197 0.6933
vn -0.0787 0.6840 0.7252
vn -0.0771 0.6990 0.7110
vn 0.5644 -0.1719 0.8074
vn 0.4775 -0.2574 0.8401
vn 0.6521 -0.3384 0.6784
vn -0.7154 -0.0993 0.6917
vn 0.1467 -0.8403 -0.5218
vn -0.0000 -0.8415 -0.5402
vn -0.0375 -0.9899 -0.1365
vn -0.0720 -0.9897 -0.1235
vn -0.0992 -0.9894 -0.1062
vn -0.1190 -0.9889 -0.0890
vn -0.1362 -0.9880 -0.0731
vn -0.1511 -0.9868 -0.0576
vn -0.1631 -0.9856 -0.0444
vn -0.1829 -0.9803 -0.0748
vn -0.1950 -0.9717 -0.1331
vn -0.1710 -0.9719 -0.1615
vn -0.1011 -0.9814 -0.1633
vn -0.0000 -0.9945 0.1050
vn -0.0000 -0.9867 -0.1628
vn 0.1011 -0.9814 -0.1633
vn 0.1710 -0.9719 -0.1615
vn 0.1950 -0.9717 -0.1331
vn 0.1829 -0.9803 -0.0748
vn 0.1631 -0.9856 -0.0444
vn 0.1511 -0.9868 -0.0576
vn 0.1362 -0.9880 -0.0731
vn 0.1190 -0.9889 -0.0890
vn 0.0992 -0.9894 -0.1062
vn 0.0720 -0.9897 -0.1235
vn 0.0375 -0.9899 -0.1365
vn -0.0000 -0.9900 -0.1411
vn -0.0000 -0.9936 -0.1127
vn -0.0033 0.9873 -0.1586
vn -0.0004 0.9869 -0.1615
vn -0.0004 0.9876 -0.1569
vn 0.0003 0.9869 -0.1614
vn -0.0157 0.9854 -0.1693
vn -0.0157 0.9855 -0.1687
vn 0.0002 0.9869 -0.1613
vn 0.0001 0.9869 -0.1613
vn -0.0001 0.9869 -0.1613
vn -0.0000 0.9869 -0.1613
vn -0.0002 0.9869 -0.1613
vn -0.0003 0.9869 -0.1614
vn 0.0033 0.9873 -0.1586
vn 0.0157 0.9854 -0.1693
vn 0.0004 0.9876 -0.1569
vn -0.0004 0.9869 -0.1614
vn 0.0004 0.9869 -0.1615
vn 0.0004 0.9869 -0.1614
vn 0.4033 -0.4774 0.7807
vn -0.0000 -0.2426 0.9701
vn -0.0000 0.5537 0.8327
vn -0.0000 0.5243 0.8515
vn -0.6044 -0.1417 0.7839
vn -0.5631 -0.1827 0.8059
vn -0.4210 -0.1042 0.9011
vn -0.2173 0.6524 0.7260
vn -0.3374 0.6927 0.6374
vn -0.2558 0.6737 0.6933
vn 0.7332 -0.0172 0.6798
vn 0.8771 0.0284 0.4795
vn 0.3374 0.6927 0.6374
vn 0.2173 0.6524 0.7260
vn 0.2558 0.6737 0.6933
vn 0.3274 -0.4877 0.8093
vn -0.0000 -0.2848 0.9586
vn -0.0000 -0.4994 0.8664
vn 0.6044 -0.1417 0.7839
vn 0.4210 -0.1042 0.9011
vn 0.5631 -0.1827 0.8059
vn -0.7332 -0.0172 0.6798
vn -0.8771 0.0284 0.4795
vn -0.0163 0.9810 -0.1935
vn -0.0000 0.9835 -0.1811
vn -0.0161 0.9812 -0.1923
vn -0.0006 0.9864 -0.1646
vn 0.0007 0.9874 -0.1581
vn 0.0035 0.9873 -0.1587
vn 0.0032 0.9872 -0.1593
vn -0.0024 0.9865 -0.1639
vn -0.0004 0.9868 -0.1618
vn 0.0004 0.9868 -0.1618
vn 0.0024 0.9865 -0.1639
vn -0.0032 0.9872 -0.1593
vn -0.0035 0.9873 -0.1587
vn 0.0157 0.9856 -0.1687
vn -0.0007 0.9874 -0.1581
vn 0.0006 0.9864 -0.1646
vn 0.0161 0.9812 -0.1923
vn 0.0163 0.9810 -0.1935
vn -0.0000 0.9848 -0.1736
vn 0.4045 -0.3054 0.8620
vn -0.0000 -0.0529 0.9986
vn -0.4045 -0.3054 0.8620
vn -0.0000 0.5494 0.8356
vn -0.0000 0.5284 0.8490
vn -0.3274 -0.4877 0.8093
vt 0.022042 0.601686
vt 0.026472 0.561616
vt 0.022903 0.603306
vt 0.074918 0.561390
vt 0.069910 0.596787
vt 0.076516 0.597611
vt 0.046184 0.596291
vt 0.039610 0.561314
vt 0.038605 0.596787
vt 0.070741 0.607283
vt 0.074467 0.561632
vt 0.077481 0.606224
vt 0.034674 0.650208
vt 0.035960 0.629915
vt 0.044120 0.654173
vt 0.035288 0.616339
vt 0.026563 0.627760
vt 0.034674 0.625492
vt 0.092090 0.641543
vt 0.091942 0.623437
vt 0.093424 0.637850
vt 0.027464 0.617724
vt 0.020338 0.630715
vt 0.090729 0.621410
vt 0.092090 0.634157
vt 0.037774 0.607283
vt 0.045706 0.607952
vt 0.044662 0.628943
vt 0.021496 0.619461
vt 0.016425 0.634157
vt 0.087018 0.619461
vt 0.088177 0.630715
vt 0.017786 0.621409
vt 0.015091 0.637850
vt 0.081051 0.617724
vt 0.081953 0.627760
vt 0.044120 0.685423
vt 0.034674 0.681458
vt 0.016572 0.623437
vt 0.016425 0.641543
vt 0.073227 0.616339
vt 0.073841 0.625492
vt 0.082553 0.604860
vt 0.080539 0.628451
vt 0.029434 0.561629
vt 0.031033 0.606224
vt 0.025963 0.604860
vt 0.054257 0.615126
vt 0.044120 0.624067
vt 0.054257 0.623581
vt 0.079081 0.561629
vt 0.085611 0.603306
vt 0.044431 0.615439
vt 0.068905 0.561314
vt 0.062332 0.596291
vt 0.062809 0.607952
vt 0.068517 0.561628
vt 0.079474 0.561469
vt 0.081713 0.598741
vt 0.023390 0.600127
vt 0.025377 0.561586
vt 0.054257 0.607115
vt 0.061629 0.561624
vt 0.082271 0.561537
vt 0.085125 0.600127
vt 0.026802 0.598741
vt 0.026244 0.561537
vt 0.046885 0.561624
vt 0.083138 0.561586
vt 0.086473 0.601686
vt 0.031999 0.597611
vt 0.029040 0.561469
vt 0.039997 0.561628
vt 0.082042 0.561616
vt 0.033597 0.561390
vt 0.034048 0.561632
vt 0.088177 0.644985
vt 0.090593 0.625421
vt 0.064395 0.624067
vt 0.054257 0.596126
vt 0.046663 0.561258
vt 0.064084 0.615439
vt 0.017922 0.625421
vt 0.020338 0.644985
vt 0.081953 0.647940
vt 0.086785 0.627240
vt 0.021730 0.627240
vt 0.027976 0.628451
vt 0.054257 0.628654
vt 0.073841 0.681458
vt 0.064395 0.685423
vt 0.073841 0.650208
vt 0.064395 0.654173
vt 0.072555 0.629915
vt 0.026563 0.647940
vt 0.061852 0.561258
vt 0.054257 0.545613
vt 0.049608 0.540460
vt 0.046663 0.545633
vt 0.045272 0.540460
vt 0.039610 0.545689
vt 0.041540 0.540460
vt 0.033597 0.545765
vt 0.038671 0.540460
vt 0.029040 0.545844
vt 0.036863 0.540460
vt 0.026244 0.545912
vt 0.036246 0.540460
vt 0.025377 0.545961
vt 0.026472 0.545991
vt 0.029434 0.546004
vt 0.034048 0.546007
vt 0.039997 0.546003
vt 0.046885 0.545999
vt 0.054257 0.545582
vt 0.054257 0.540460
vt 0.058906 0.540460
vt 0.061629 0.545999
vt 0.063243 0.540460
vt 0.068517 0.546003
vt 0.066974 0.540460
vt 0.074467 0.546007
vt 0.069844 0.540460
vt 0.079081 0.546004
vt 0.082042 0.545991
vt 0.071651 0.540460
vt 0.083138 0.545961
vt 0.072269 0.540460
vt 0.082271 0.545912
vt 0.079474 0.545844
vt 0.074918 0.545765
vt 0.068905 0.545689
vt 0.061852 0.545633
vt 0.093424 0.669100
vt 0.087561 0.665851
vt 0.088735 0.669102
vt 0.020338 0.661965
vt 0.029878 0.660220
vt 0.026563 0.659010
vt 0.087561 0.672353
vt 0.092090 0.672793
vt 0.037018 0.658224
vt 0.034674 0.656742
vt 0.045334 0.656969
vt 0.044120 0.655317
vt 0.064395 0.655317
vt 0.054257 0.656541
vt 0.063181 0.656969
vt 0.054257 0.654831
vt 0.073841 0.656742
vt 0.071496 0.658224
vt 0.081953 0.659010
vt 0.078637 0.660220
vt 0.015091 0.669100
vt 0.020954 0.672353
vt 0.019780 0.669102
vt 0.088177 0.661965
vt 0.084116 0.662822
vt 0.020954 0.665851
vt 0.016425 0.665407
vt 0.024399 0.662822
vt 0.092090 0.665407
vt 0.063994 0.633137
vt 0.054257 0.662665
vt 0.044521 0.633137
vt 0.054257 0.633558
vt 0.054257 0.693915
vt 0.063853 0.628943
vt 0.063217 0.616157
vt 0.054257 0.611599
vt 0.036867 0.618599
vt 0.054257 0.692155
vt 0.045334 0.683913
vt 0.037018 0.679981
vt 0.026563 0.679190
vt 0.029878 0.677984
vt 0.084116 0.675383
vt 0.088177 0.676235
vt 0.020338 0.676235
vt 0.024399 0.675383
vt 0.078637 0.677984
vt 0.081953 0.679190
vt 0.016425 0.672793
vt 0.071496 0.679981
vt 0.063181 0.683913
vt 0.071648 0.618599
vt 0.045298 0.616157
vt 0.054257 0.561207
vt 0.054257 0.561238
s 1
usemtl rogue.002
f 56/1/1 98/2/2 61/3/3
f 70/4/4 63/5/5 58/6/6
f 31/7/7 108/8/8 34/9/9
f 59/10/10 82/11/11 64/12/12
f 14/13/13 130/14/14 133/15/15
f 33/16/16 20/17/17 21/18/18
f 7/19/19 42/20/20 6/21/21
f 40/22/22 19/23/23 20/17/17
f 6/21/21 47/24/24 5/25/25
f 39/26/26 44/27/27 138/28/28
f 45/29/29 18/30/30 19/23/23
f 5/25/25 52/31/31 4/32/32
f 50/33/33 17/34/34 18/30/30
f 4/32/32 57/35/35 3/36/36
f 13/37/37 14/38/38 133/37/39
f 55/39/40 148/40/41 17/34/34
f 3/36/36 62/41/42 2/42/43
f 35/43/44 132/44/45 64/12/12
f 96/45/46 26/46/47 24/47/48
f 29/48/49 22/49/50 23/50/51
f 80/51/52 38/52/53 35/43/44
f 64/12/12 80/51/52 35/43/44
f 32/53/54 21/18/18 22/49/50
f 68/54/55 27/55/56 63/5/5
f 61/3/3 96/45/46 24/47/48
f 54/56/57 84/57/58 59/10/10
f 72/58/59 58/6/6 53/59/60
f 51/60/61 100/61/62 56/1/1
f 49/62/63 86/63/64 54/56/57
f 74/64/65 53/59/60 48/65/66
f 46/66/67 102/67/68 51/60/61
f 90/68/69 49/62/63 44/27/27
f 76/69/70 48/65/66 43/70/71
f 41/71/72 104/72/73 46/66/67
f 92/73/74 44/27/27 39/26/26
f 78/74/75 43/70/71 38/52/53
f 34/9/9 106/75/76 41/71/72
f 94/76/77 39/26/26 26/46/47
f 8/77/78 37/78/79 7/19/19
f 1/79/80 29/48/49 23/50/51
f 30/80/81 110/81/82 31/7/7
f 2/42/43 28/82/83 1/79/80
f 60/83/84 16/84/85 148/40/41
f 9/85/86 36/86/87 8/77/78
f 30/80/81 32/53/54 29/48/49
f 27/55/56 62/41/42 63/5/5
f 61/3/3 25/87/88 60/83/84
f 14/13/13 129/88/89 130/14/14
f 63/5/5 57/35/35 58/6/6
f 61/3/3 55/39/40 56/1/1
f 44/27/27 137/89/90 138/28/28
f 53/59/60 57/35/35 52/31/31
f 56/1/1 50/33/33 51/60/61
f 10/90/91 11/91/92 135/91/93
f 48/65/66 52/31/31 47/24/24
f 51/60/61 45/29/29 46/66/67
f 54/56/57 137/89/90 49/62/63
f 43/70/71 47/24/24 42/20/20
f 46/66/67 40/22/22 41/71/72
f 10/92/94 135/93/95 131/94/96
f 38/52/53 42/20/20 37/78/79
f 34/9/9 40/22/22 33/16/16
f 26/46/47 130/14/14 129/88/89
f 38/52/53 36/86/87 35/43/44
f 31/7/7 33/16/16 32/53/54
f 30/80/81 28/82/83 27/55/56
f 25/87/88 15/95/97 16/84/85
f 131/94/96 64/12/12 132/44/45
f 66/96/98 30/80/81 27/55/56
f 111/97/99 109/98/100 110/99/82
f 110/99/82 107/100/101 108/101/8
f 108/101/8 105/102/102 106/103/76
f 106/103/76 103/104/103 104/105/73
f 104/105/73 101/106/104 102/107/68
f 102/107/68 99/108/105 100/109/62
f 100/109/62 97/106/106 98/110/2
f 98/110/2 95/104/107 96/111/46
f 94/112/77 95/104/107 93/102/108
f 92/113/74 93/102/108 91/100/109
f 90/114/69 91/100/109 89/98/110
f 88/115/111 89/98/110 87/116/112
f 88/115/111 85/117/113 86/118/64
f 86/118/64 83/119/114 84/120/58
f 84/120/58 81/121/115 82/122/11
f 82/122/11 79/123/116 80/124/52
f 78/125/75 79/123/116 77/126/117
f 76/127/70 77/126/117 75/128/118
f 74/129/65 75/128/118 73/126/119
f 72/130/59 73/126/119 71/123/120
f 70/131/4 71/123/120 69/121/121
f 68/132/55 69/121/121 67/119/122
f 66/133/98 67/119/122 65/117/123
f 111/97/99 65/117/123 112/116/124
f 109/98/100 112/116/124 113/116/125
f 112/116/124 65/117/123 113/116/125
f 65/117/123 67/119/122 113/116/125
f 67/119/122 69/121/121 113/116/125
f 69/121/121 71/123/120 113/116/125
f 71/123/120 73/126/119 113/116/125
f 73/126/119 75/128/118 113/116/125
f 75/128/118 77/126/117 113/116/125
f 77/126/117 79/123/116 113/116/125
f 79/123/116 81/121/115 113/116/125
f 81/121/115 83/119/114 113/116/125
f 83/119/114 85/117/113 113/116/125
f 85/117/113 87/116/112 113/116/125
f 87/116/112 89/98/110 113/116/125
f 89/98/110 91/100/109 113/116/125
f 91/100/109 93/102/108 113/116/125
f 93/102/108 95/104/107 113/116/125
f 95/104/107 97/106/106 113/116/125
f 97/106/106 99/108/105 113/116/125
f 99/108/105 101/106/104 113/116/125
f 101/106/104 103/104/103 113/116/125
f 103/104/103 105/102/102 113/116/125
f 105/102/102 107/100/101 113/116/125
f 107/100/101 109/98/100 113/116/125
f 6/134/126 123/135/127 122/136/128
f 19/137/129 116/138/129 20/139/129
f 6/134/126 121/140/130 7/141/131
f 20/139/129 115/142/132 21/143/132
f 21/143/132 114/144/133 22/145/133
f 1/146/134 128/147/135 127/148/134
f 22/145/133 128/147/135 23/149/135
f 2/150/136 127/148/134 126/151/136
f 3/152/137 126/151/136 125/153/137
f 17/154/138 120/155/139 119/156/140
f 4/157/137 125/153/137 124/158/141
f 17/154/138 118/159/142 18/160/142
f 18/160/142 117/161/143 19/137/129
f 5/162/127 124/158/141 123/135/127
f 24/47/48 129/88/89 25/87/88
f 10/92/94 132/44/45 9/85/86
f 135/93/95 136/163/144 131/94/96
f 134/164/145 136/163/144 135/93/95
f 134/164/145 138/165/28 137/166/90
f 130/14/14 138/165/28 133/15/15
f 13/37/37 134/167/146 12/167/147
f 54/56/57 59/10/10 136/168/144
f 130/14/14 39/26/26 138/28/28
f 11/91/92 134/167/146 135/91/93
f 59/10/10 131/94/96 136/168/144
f 145/13/148 158/14/149 160/15/150
f 144/37/151 145/38/152 160/37/153
f 140/85/154 8/86/78 139/77/155
f 145/13/148 15/88/97 158/14/149
f 141/90/156 142/91/157 162/91/158
f 11/169/159 164/89/160 12/170/161
f 141/92/162 162/93/163 159/94/164
f 14/171/13 158/14/149 15/88/97
f 16/87/85 146/95/165 147/84/166
f 144/37/167 153/172/168 152/173/169
f 145/38/170 152/173/169 151/174/171
f 146/175/172 151/174/171 150/176/173
f 7/141/131 157/177/174 139/178/175
f 147/179/176 150/176/173 149/180/177
f 139/178/175 156/181/178 140/182/179
f 148/183/180 149/180/177 120/155/139
f 140/182/179 155/184/181 141/90/182
f 141/90/182 154/185/183 142/91/184
f 142/91/184 153/172/168 143/167/185
f 159/94/164 10/186/94 9/44/86
f 141/92/162 9/44/86 140/85/154
f 162/93/163 163/163/186 159/94/164
f 164/166/160 162/93/163 161/164/187
f 160/15/150 164/166/160 161/164/187
f 158/14/149 165/165/188 160/15/150
f 144/37/151 161/167/189 143/167/190
f 142/91/157 161/167/189 162/91/158
f 147/84/166 148/40/41 16/87/85
f 139/77/155 8/86/78 7/19/19
f 159/94/164 11/169/159 10/186/94
f 158/14/149 13/187/191 165/28/188
f 13/187/191 164/89/160 165/28/188
f 56/1/1 100/61/62 98/2/2
f 70/4/4 68/54/55 63/5/5
f 31/7/7 110/81/82 108/8/8
f 59/10/10 84/57/58 82/11/11
f 33/16/16 40/22/22 20/17/17
f 7/19/19 37/78/79 42/20/20
f 40/22/22 45/29/29 19/23/23
f 6/21/21 42/20/20 47/24/24
f 45/29/29 50/33/33 18/30/30
f 5/25/25 47/24/24 52/31/31
f 50/33/33 55/39/40 17/34/34
f 4/32/32 52/31/31 57/35/35
f 55/39/40 60/83/84 148/40/41
f 3/36/36 57/35/35 62/41/42
f 35/43/44 36/86/87 132/44/45
f 96/45/46 94/76/77 26/46/47
f 29/48/49 32/53/54 22/49/50
f 80/51/52 78/74/75 38/52/53
f 64/12/12 82/11/11 80/51/52
f 32/53/54 33/16/16 21/18/18
f 68/54/55 66/96/98 27/55/56
f 61/3/3 98/2/2 96/45/46
f 54/56/57 86/63/64 84/57/58
f 72/58/59 70/4/4 58/6/6
f 51/60/61 102/67/68 100/61/62
f 49/62/63 88/188/111 86/63/64
f 74/64/65 72/58/59 53/59/60
f 46/66/67 104/72/73 102/67/68
f 90/68/69 88/188/111 49/62/63
f 76/69/70 74/64/65 48/65/66
f 41/71/72 106/75/76 104/72/73
f 92/73/74 90/68/69 44/27/27
f 78/74/75 76/69/70 43/70/71
f 34/9/9 108/8/8 106/75/76
f 94/76/77 92/73/74 39/26/26
f 8/77/78 36/86/87 37/78/79
f 1/79/80 28/82/83 29/48/49
f 30/80/81 111/189/99 110/81/82
f 2/42/43 62/41/42 28/82/83
f 60/83/84 25/87/88 16/84/85
f 9/85/86 132/44/45 36/86/87
f 30/80/81 31/7/7 32/53/54
f 27/55/56 28/82/83 62/41/42
f 61/3/3 24/47/48 25/87/88
f 14/13/13 15/95/97 129/88/89
f 63/5/5 62/41/42 57/35/35
f 61/3/3 60/83/84 55/39/40
f 44/27/27 49/62/63 137/89/90
f 53/59/60 58/6/6 57/35/35
f 56/1/1 55/39/40 50/33/33
f 48/65/66 53/59/60 52/31/31
f 51/60/61 50/33/33 45/29/29
f 54/56/57 136/168/144 137/89/90
f 43/70/71 48/65/66 47/24/24
f 46/66/67 45/29/29 40/22/22
f 38/52/53 43/70/71 42/20/20
f 34/9/9 41/71/72 40/22/22
f 26/46/47 39/26/26 130/14/14
f 38/52/53 37/78/79 36/86/87
f 31/7/7 34/9/9 33/16/16
f 30/80/81 29/48/49 28/82/83
f 25/87/88 129/88/89 15/95/97
f 131/94/96 59/10/10 64/12/12
f 66/96/98 111/189/99 30/80/81
f 111/97/99 112/116/124 109/98/100
f 110/99/82 109/98/100 107/100/101
f 108/101/8 107/100/101 105/102/102
f 106/103/76 105/102/102 103/104/103
f 104/105/73 103/104/103 101/106/104
f 102/107/68 101/106/104 99/108/105
f 100/109/62 99/108/105 97/106/106
f 98/110/2 97/106/106 95/104/107
f 94/112/77 96/111/46 95/104/107
f 92/113/74 94/112/77 93/102/108
f 90/114/69 92/113/74 91/100/109
f 88/115/111 90/114/69 89/98/110
f 88/115/111 87/116/112 85/117/113
f 86/118/64 85/117/113 83/119/114
f 84/120/58 83/119/114 81/121/115
f 82/122/11 81/121/115 79/123/116
f 78/125/75 80/124/52 79/123/116
f 76/127/70 78/125/75 77/126/117
f 74/129/65 76/127/70 75/128/118
f 72/130/59 74/129/65 73/126/119
f 70/131/4 72/130/59 71/123/120
f 68/132/55 70/131/4 69/121/121
f 66/133/98 68/132/55 67/119/122
f 111/97/99 66/133/98 65/117/123
f 6/134/126 5/162/127 123/135/127
f 19/137/129 117/161/143 116/138/129
f 6/134/126 122/136/128 121/140/130
f 20/139/129 116/138/129 115/142/132
f 21/143/132 115/142/132 114/144/133
f 1/146/134 23/149/135 128/147/135
f 22/145/133 114/144/133 128/147/135
f 2/150/136 1/146/134 127/148/134
f 3/152/137 2/150/136 126/151/136
f 17/154/138 148/183/180 120/155/139
f 4/157/137 3/152/137 125/153/137
f 17/154/138 119/156/140 118/159/142
f 18/160/142 118/159/142 117/161/143
f 5/162/127 4/157/137 124/158/141
f 24/47/48 26/46/47 129/88/89
f 10/92/94 131/94/96 132/44/45
f 134/164/145 137/166/90 136/163/144
f 134/164/145 133/15/15 138/165/28
f 13/37/37 133/37/39 134/167/146
f 11/91/92 12/167/147 134/167/146
f 140/85/154 9/44/86 8/86/78
f 145/13/148 146/95/165 15/88/97
f 11/169/159 163/168/186 164/89/160
f 16/87/85 15/88/97 146/95/165
f 144/37/167 143/167/185 153/172/168
f 145/38/170 144/37/167 152/173/169
f 146/175/172 145/38/170 151/174/171
f 7/141/131 121/140/130 157/177/174
f 147/179/176 146/175/172 150/176/173
f 139/178/175 157/177/174 156/181/178
f 148/183/180 147/179/176 149/180/177
f 140/182/179 156/181/178 155/184/181
f 141/90/182 155/184/181 154/185/183
f 142/91/184 154/185/183 153/172/168
f 141/92/162 159/94/164 9/44/86
f 164/166/160 163/163/186 162/93/163
f 160/15/150 165/165/188 164/166/160
f 144/37/151 160/37/153 161/167/189
f 142/91/157 143/167/190 161/167/189
f 159/94/164 163/168/186 11/169/159
f 158/14/149 14/171/13 13/187/191
f 13/187/191 12/170/161 164/89/160
